<?xml version="1.0" encoding="utf-8"?>
<!-- Generator: Adobe Illustrator 26.0.0, SVG Export Plug-In . SVG Version: 6.00 Build 0)  -->
<svg version="1.1" xmlns="http://www.w3.org/2000/svg" xmlns:xlink="http://www.w3.org/1999/xlink" x="0px" y="0px"
	 viewBox="0 0 500 500" style="enable-background:new 0 0 500 500;" xml:space="preserve">
<style type="text/css">
	.st0{fill:#3E70BF;}
	.st1{fill:#ABD1FF;}
	.st2{fill:#9FCBFF;}
	.st3{fill:#70A9FC;}
	.st4{fill:none;stroke:#9FCBFF;stroke-width:4;stroke-miterlimit:10;}
	.st5{fill:#F6F4FF;}
	.st6{opacity:0.29;fill:#3662A3;}
	.st7{fill:#36353D;}
	.st8{fill:#373449;}
	.st9{fill:#454456;}
	.st10{fill:#28272D;}
	.st11{fill:#414049;}
	.st12{fill:#151516;}
	.st13{fill:#6E6D75;}
	.st14{fill:#5295FE;}
	.st15{fill:#322E3F;}
	.st16{fill:none;stroke:#322E3F;stroke-width:2;stroke-miterlimit:10;}
	.st17{fill:none;stroke:#FF3E55;stroke-width:2;stroke-linecap:round;stroke-miterlimit:10;}
	.st18{fill:#EF415A;}
	.st19{fill:#FFFFFF;}
	.st20{font-family:'Lato-Black';}
	.st21{font-size:10.8015px;}
	.st22{fill:#FF9739;}
	.st23{fill:#34344F;}
	.st24{fill:#434370;}
	.st25{fill:#E5A377;}
	.st26{fill:#96356A;}
	.st27{fill:#FFBB88;}
	.st28{fill:#E09868;}
	.st29{fill:#8C4F26;}
	.st30{fill:#773C15;}
	.st31{fill:#B26938;}
	.st32{fill:#6B688C;}
	.st33{fill:#A83F7D;}
	.st34{fill:#DB741F;}
	.st35{fill:#535391;}
</style>
<g id="BACKGROUND">
	<g>
		<g>
			<path class="st0" d="M381.31,271.31l-56.62-159.07c-20.45-57.45-88.46-81.68-140.63-50.11l-90.41,54.72
				c-49.63,30.04-61.64,96.81-25.59,142.26l94.01,118.53c23.85,30.07,63.28,43.12,100.36,33.2l53.02-14.18
				C369.79,382.13,400.17,324.31,381.31,271.31z"/>
			<path class="st1" d="M205.64,290.52L172.5,353.6c-21.25,40.46-77.98,43.61-103.59,5.77l-27.86-41.16
				c-22.12-32.68-7.51-77.44,29.62-90.78l61-21.92C183.56,186.87,231.28,241.72,205.64,290.52z"/>
			<g>
				<path class="st2" d="M425.89,149.03c0.17-0.3,0.34-0.6,0.51-0.91l-71.18-71.18c-0.3,0.17-0.61,0.33-0.91,0.51L425.89,149.03z"/>
				<path class="st2" d="M430.9,137.07c0.1-0.37,0.21-0.74,0.3-1.11l-63.81-63.81c-0.37,0.1-0.74,0.2-1.11,0.3L430.9,137.07z"/>
				<path class="st2" d="M429.5,141.33c0.13-0.34,0.27-0.68,0.39-1.03l-66.86-66.86c-0.34,0.12-0.68,0.26-1.03,0.39L429.5,141.33z"
					/>
				<path class="st2" d="M427.83,145.32c0.15-0.32,0.3-0.65,0.44-0.97l-69.28-69.28c-0.33,0.15-0.65,0.29-0.97,0.44L427.83,145.32z"
					/>
				<path class="st2" d="M421.3,155.75c0.21-0.26,0.41-0.53,0.62-0.8l-73.54-73.54c-0.27,0.21-0.53,0.41-0.8,0.62L421.3,155.75z"/>
				<path class="st2" d="M418.66,158.77c0.23-0.24,0.47-0.48,0.69-0.73l-74.07-74.07c-0.25,0.22-0.48,0.46-0.73,0.69L418.66,158.77z
					"/>
				<path class="st2" d="M423.71,152.5c0.19-0.28,0.39-0.56,0.58-0.84l-72.61-72.61c-0.28,0.19-0.56,0.38-0.84,0.58L423.71,152.5z"
					/>
				<path class="st2" d="M431.96,132.47c0.07-0.4,0.14-0.81,0.2-1.21l-60.09-60.09c-0.4,0.06-0.81,0.13-1.21,0.2L431.96,132.47z"/>
				<path class="st2" d="M403.76,75.99l23.58,23.58c-0.51-1.03-1.05-2.05-1.64-3.05l-18.89-18.89
					C405.81,77.04,404.79,76.5,403.76,75.99z"/>
				<path class="st2" d="M430.88,108.77c-0.19-0.68-0.4-1.36-0.61-2.03l-33.68-33.68c-0.67-0.22-1.35-0.42-2.03-0.61L430.88,108.77z
					"/>
				<path class="st2" d="M432.82,122.01c-0.01-0.48-0.01-0.97-0.03-1.45l-50.01-50.01c-0.48-0.02-0.97-0.03-1.45-0.03L432.82,122.01
					z"/>
				<path class="st2" d="M432.63,127.49c0.04-0.44,0.07-0.88,0.09-1.32l-55.56-55.56c-0.44,0.03-0.88,0.06-1.32,0.09L432.63,127.49z
					"/>
				<path class="st2" d="M432.36,115.9c-0.08-0.56-0.17-1.12-0.26-1.67l-42.99-42.99c-0.56-0.09-1.11-0.18-1.67-0.26L432.36,115.9z"
					/>
				<path class="st2" d="M378.66,175.34c0.48,0.02,0.97,0.03,1.45,0.03l-52.16-52.16c0,0.48,0.02,0.97,0.03,1.45L378.66,175.34z"/>
				<path class="st2" d="M384.21,175.23c0.44-0.03,0.88-0.06,1.31-0.1l-57.32-57.32c-0.04,0.44-0.07,0.88-0.1,1.31L384.21,175.23z"
					/>
				<path class="st2" d="M372.44,174.77c0.54,0.08,1.09,0.15,1.63,0.22l-45.72-45.72c0.07,0.54,0.13,1.09,0.22,1.63L372.44,174.77z"
					/>
				<path class="st2" d="M355.39,169.04c0.95,0.51,1.9,1.01,2.87,1.46l-25.44-25.44c0.45,0.97,0.95,1.93,1.46,2.87L355.39,169.04z"
					/>
				<path class="st2" d="M389.25,174.62c0.4-0.07,0.81-0.13,1.21-0.21l-61.54-61.54c-0.08,0.4-0.14,0.81-0.21,1.21L389.25,174.62z"
					/>
				<path class="st2" d="M365.12,173.11c0.65,0.2,1.31,0.38,1.96,0.55l-37.41-37.41c0.17,0.66,0.35,1.31,0.55,1.96L365.12,173.11z"
					/>
				<path class="st2" d="M412.76,164.19c0.26-0.21,0.53-0.41,0.79-0.62l-73.79-73.79c-0.21,0.26-0.41,0.53-0.62,0.79L412.76,164.19z
					"/>
				<path class="st2" d="M409.49,166.57c0.28-0.19,0.56-0.39,0.83-0.58l-72.99-72.99c-0.19,0.28-0.39,0.55-0.58,0.83L409.49,166.57z
					"/>
				<path class="st2" d="M393.9,173.61c0.37-0.1,0.74-0.19,1.11-0.3l-64.99-64.99c-0.11,0.37-0.2,0.74-0.3,1.11L393.9,173.61z"/>
				<path class="st2" d="M415.83,161.59c0.24-0.22,0.48-0.46,0.73-0.69l-74.12-74.12c-0.23,0.24-0.46,0.48-0.69,0.73L415.83,161.59z
					"/>
				<path class="st2" d="M405.98,168.72c0.3-0.17,0.61-0.33,0.91-0.51l-71.76-71.76c-0.18,0.3-0.34,0.61-0.51,0.91L405.98,168.72z"
					/>
				<path class="st2" d="M402.23,170.63c0.32-0.15,0.64-0.3,0.96-0.46l-70.03-70.03c-0.15,0.32-0.31,0.64-0.46,0.96L402.23,170.63z"
					/>
				<path class="st2" d="M398.21,172.27c0.34-0.12,0.69-0.26,1.03-0.39l-67.79-67.79c-0.13,0.34-0.26,0.68-0.39,1.03L398.21,172.27z
					"/>
			</g>
			<g>
				<path class="st0" d="M86.72,262.23c-0.18-0.1-0.36-0.2-0.54-0.3l-42.04,42.04c0.1,0.18,0.2,0.36,0.3,0.54L86.72,262.23z"/>
				<path class="st0" d="M79.65,259.27c-0.22-0.06-0.44-0.12-0.66-0.18l-37.69,37.69c0.06,0.22,0.12,0.44,0.18,0.66L79.65,259.27z"
					/>
				<path class="st0" d="M82.17,260.09c-0.2-0.08-0.4-0.16-0.61-0.23l-39.49,39.49c0.07,0.2,0.15,0.4,0.23,0.61L82.17,260.09z"/>
				<path class="st0" d="M84.53,261.08c-0.19-0.09-0.38-0.17-0.58-0.26l-40.92,40.92c0.09,0.19,0.17,0.38,0.26,0.58L84.53,261.08z"
					/>
				<path class="st0" d="M90.69,264.94c-0.16-0.12-0.31-0.24-0.47-0.36l-43.43,43.43c0.12,0.16,0.24,0.32,0.36,0.47L90.69,264.94z"
					/>
				<path class="st0" d="M92.47,266.49c-0.14-0.13-0.28-0.28-0.43-0.41L48.3,309.83c0.13,0.15,0.27,0.29,0.41,0.43L92.47,266.49z"/>
				<path class="st0" d="M88.77,263.52c-0.17-0.11-0.33-0.23-0.5-0.34l-42.89,42.89c0.11,0.17,0.23,0.33,0.34,0.5L88.77,263.52z"/>
				<path class="st0" d="M76.94,258.64c-0.24-0.04-0.48-0.08-0.71-0.12l-35.49,35.49c0.04,0.24,0.08,0.48,0.12,0.71L76.94,258.64z"
					/>
				<path class="st0" d="M43.58,275.3l13.93-13.93c-0.61,0.3-1.21,0.62-1.8,0.97l-11.16,11.16C44.2,274.08,43.88,274.69,43.58,275.3
					z"/>
				<path class="st0" d="M62.94,259.28c-0.4,0.11-0.8,0.23-1.2,0.36l-19.89,19.89c-0.13,0.4-0.25,0.8-0.36,1.2L62.94,259.28z"/>
				<path class="st0" d="M70.76,258.14c-0.29,0.01-0.57,0.01-0.86,0.02L40.37,287.7c-0.01,0.29-0.02,0.57-0.02,0.86L70.76,258.14z"
					/>
				<path class="st0" d="M74,258.24c-0.26-0.02-0.52-0.04-0.78-0.06L40.4,291c0.02,0.26,0.03,0.52,0.06,0.78L74,258.24z"/>
				<path class="st0" d="M67.15,258.41c-0.33,0.04-0.66,0.1-0.99,0.15l-25.39,25.39c-0.06,0.33-0.11,0.66-0.15,0.99L67.15,258.41z"
					/>
				<path class="st0" d="M102.26,290.12c0.01-0.29,0.02-0.57,0.02-0.86l-30.8,30.8c0.29,0,0.57-0.01,0.86-0.02L102.26,290.12z"/>
				<path class="st0" d="M102.19,286.84c-0.02-0.26-0.03-0.52-0.06-0.78l-33.86,33.86c0.26,0.03,0.52,0.04,0.78,0.06L102.19,286.84z
					"/>
				<path class="st0" d="M101.92,293.8c0.05-0.32,0.09-0.64,0.13-0.96l-27,27c0.32-0.04,0.64-0.08,0.96-0.13L101.92,293.8z"/>
				<path class="st0" d="M98.54,303.86c0.3-0.56,0.6-1.12,0.86-1.7l-15.02,15.02c0.57-0.27,1.14-0.56,1.7-0.86L98.54,303.86z"/>
				<path class="st0" d="M101.83,283.86c-0.04-0.24-0.08-0.48-0.12-0.71L65.36,319.5c0.24,0.05,0.48,0.08,0.71,0.12L101.83,283.86z"
					/>
				<path class="st0" d="M100.94,298.12c0.12-0.38,0.22-0.77,0.32-1.16l-22.1,22.1c0.39-0.1,0.77-0.21,1.16-0.32L100.94,298.12z"/>
				<path class="st0" d="M95.67,269.98c-0.12-0.16-0.24-0.31-0.37-0.47l-43.58,43.58c0.15,0.13,0.31,0.24,0.47,0.37L95.67,269.98z"
					/>
				<path class="st0" d="M97.08,271.91c-0.11-0.17-0.23-0.33-0.34-0.49l-43.11,43.11c0.16,0.11,0.33,0.23,0.49,0.34L97.08,271.91z"
					/>
				<path class="st0" d="M101.24,281.12c-0.06-0.22-0.11-0.44-0.18-0.66l-38.38,38.38c0.22,0.06,0.44,0.12,0.66,0.18L101.24,281.12z
					"/>
				<path class="st0" d="M94.14,268.17c-0.13-0.14-0.27-0.29-0.41-0.43l-43.78,43.78c0.14,0.14,0.28,0.27,0.43,0.41L94.14,268.17z"
					/>
				<path class="st0" d="M98.35,273.99c-0.1-0.18-0.2-0.36-0.3-0.54l-42.39,42.39c0.18,0.1,0.36,0.2,0.54,0.3L98.35,273.99z"/>
				<path class="st0" d="M99.48,276.2c-0.09-0.19-0.18-0.38-0.27-0.56l-41.36,41.36c0.19,0.09,0.38,0.18,0.56,0.27L99.48,276.2z"/>
				<path class="st0" d="M100.44,278.57c-0.07-0.2-0.15-0.4-0.23-0.61L60.18,318c0.2,0.08,0.4,0.16,0.61,0.23L100.44,278.57z"/>
			</g>
			<path class="st3" d="M320.72,217.98l77.33-18.82c49.59-12.07,94.13,33.13,81.33,82.54l-13.92,53.74
				c-11.05,42.66-59.34,63.48-97.94,42.21l-63.41-34.93C250.17,313.02,260.89,232.53,320.72,217.98z"/>
			
				<ellipse transform="matrix(0.2224 -0.9749 0.9749 0.2224 9.9776 204.8904)" class="st4" cx="133.44" cy="96.19" rx="20.15" ry="20.15"/>
			
				<ellipse transform="matrix(0.9239 -0.3827 0.3827 0.9239 -139.2348 63.8073)" class="st5" cx="90.77" cy="381.89" rx="11.11" ry="11.11"/>
			<circle class="st5" cx="433.29" cy="178.04" r="8"/>
		</g>
	</g>
</g>
<g id="OBJECTS">
	<g>
		<ellipse class="st6" cx="250" cy="434.12" rx="167.36" ry="23.11"/>
		<g>
			<g>
				<path class="st7" d="M160.42,159.57L160.42,159.57c-0.7,0-1.27-0.57-1.27-1.27v-12.55c0-0.7,0.57-1.27,1.27-1.27l0,0
					c0.7,0,1.27,0.57,1.27,1.27v12.55C161.69,159,161.12,159.57,160.42,159.57z"/>
				<path class="st7" d="M160.42,198.2L160.42,198.2c-0.7,0-1.27-0.57-1.27-1.27v-23.89c0-0.7,0.57-1.27,1.27-1.27l0,0
					c0.7,0,1.27,0.57,1.27,1.27v23.89C161.69,197.63,161.12,198.2,160.42,198.2z"/>
				<path class="st7" d="M160.42,232.48L160.42,232.48c-0.7,0-1.27-0.57-1.27-1.27v-23.89c0-0.7,0.57-1.27,1.27-1.27l0,0
					c0.7,0,1.27,0.57,1.27,1.27v23.89C161.69,231.91,161.12,232.48,160.42,232.48z"/>
				<path class="st8" d="M313.63,94.77H187.74c-15.03,0-27.22,12.19-27.22,27.22v284.01c0,15.03,12.19,27.22,27.22,27.22h125.88
					c15.03,0,27.22-12.19,27.22-27.22V121.99C340.85,106.96,328.66,94.77,313.63,94.77z"/>
				<path class="st9" d="M313.47,97.93H188.59c-13.13,0-23.77,10.64-23.77,23.77v284.29c0,13.13,10.64,23.77,23.77,23.77h124.88
					c13.13,0,23.77-10.64,23.77-23.77V121.7C337.24,108.57,326.59,97.93,313.47,97.93z"/>
				<g>
					<path class="st10" d="M276.3,109.99c0,1.89-1.53,3.43-3.43,3.43c-1.89,0-3.43-1.53-3.43-3.43c0-1.89,1.53-3.43,3.43-3.43
						C274.77,106.57,276.3,108.1,276.3,109.99z"/>
					<path class="st11" d="M274.89,109.99c0,1.11-0.9,2.01-2.01,2.01c-1.11,0-2.01-0.9-2.01-2.01c0-1.11,0.9-2.01,2.01-2.01
						C273.99,107.98,274.89,108.88,274.89,109.99z"/>
					<path class="st12" d="M273.88,109.99c0,0.56-0.45,1.01-1.01,1.01c-0.56,0-1.01-0.45-1.01-1.01c0-0.56,0.45-1.01,1.01-1.01
						C273.43,108.99,273.88,109.44,273.88,109.99z"/>
					<path class="st13" d="M273.64,109.67c0,0.23-0.18,0.41-0.41,0.41c-0.23,0-0.41-0.18-0.41-0.41c0-0.23,0.18-0.41,0.41-0.41
						C273.45,109.26,273.64,109.44,273.64,109.67z"/>
				</g>
				<path class="st10" d="M262.68,111.5h-20.29c-0.79,0-1.44-0.65-1.44-1.44l0,0c0-0.79,0.65-1.44,1.44-1.44h20.29
					c0.79,0,1.44,0.65,1.44,1.44l0,0C264.12,110.85,263.48,111.5,262.68,111.5z"/>
			</g>
			<g>
				<g>
					<g>
						<g>
							<g>
								<path class="st5" d="M314.47,105.61h-18.33v2.54c0,5.87-4.76,10.63-10.63,10.63h-68.15c-5.87,0-10.63-4.76-10.63-10.63
									v-2.54h-18.6c-9.04,0-16.36,7.33-16.36,16.36v284.47c0,9.04,7.33,16.36,16.36,16.36h126.34c9.04,0,16.36-7.33,16.36-16.36
									V121.97C330.84,112.93,323.51,105.61,314.47,105.61z"/>
							</g>
						</g>
					</g>
				</g>
				<g>
					<rect x="171.51" y="168.54" class="st14" width="159.34" height="158.95"/>
					<g>
						<g>
							<g>
								<rect x="195.04" y="192.06" class="st5" width="111.9" height="111.9"/>
								<g>
									<g>
										<path class="st15" d="M290.31,234.68c0-8.75,0-17.29,0-25.95c-8.68,0-17.22,0-25.97,0c0,8.8,0,17.41,0,25.95
											C273.13,234.68,281.74,234.68,290.31,234.68z M268.05,231.04c0-6.22,0-12.33,0-18.57c6.16,0,12.21,0,18.46,0
											c0,6.1,0,12.22,0,18.57C280.3,231.04,274.25,231.04,268.05,231.04z"/>
										<path class="st15" d="M290.23,261.28c-8.7,0-17.17,0-25.9,0c0,8.85,0,17.45,0,26.04c8.78,0,17.38,0,25.9,0
											C290.23,278.51,290.23,269.91,290.23,261.28z M268.03,283.61c0-6.14,0-12.19,0-18.44c6.08,0,12.19,0,18.57,0
											c0,6.19,0,12.24,0,18.44C280.39,283.61,274.28,283.61,268.03,283.61z"/>
										<path class="st15" d="M211.66,208.75c0,8.68,0,17.22,0,25.95c8.82,0,17.42,0,25.95,0c0-8.8,0-17.4,0-25.95
											C228.86,208.75,220.32,208.75,211.66,208.75z M233.92,212.54c0,6.1,0,12.22,0,18.47c-6.11,0-12.16,0-18.52,0
											c0-6.19,0-12.23,0-18.47C221.53,212.54,227.64,212.54,233.92,212.54z"/>
										<path class="st15" d="M286.65,253.67c0,0.03,0,0.05,0,0.08c0.03,0,0.05,0,0.08,0L286.65,253.67z"/>
										<path class="st15" d="M271.76,250.05c0,2.58,0,4.87,0,7.23c5.06,0,9.92,0,14.89,0c0-1.28,0-2.41,0-3.53
											c-3.69,0-7.38,0-11.35,0c0-2.74,0-5.1,0-7.42c-3.84,0-7.38,0-10.96,0c0,1.24,0,2.34,0,3.72
											C266.86,250.05,269.22,250.05,271.76,250.05z"/>
										<path class="st15" d="M286.57,242.28c0-1.17,0-2.21,0-3.43c-7.58,0-14.93,0-22.29,0c0,1.22,0,2.26,0,3.43
											C271.75,242.28,279.1,242.28,286.57,242.28z"/>
										<path class="st15" d="M286.65,253.67c0,0,0.08,0.08,0.08,0.08c0-0.03,0-0.05,0-0.08
											C286.7,253.67,286.68,253.67,286.65,253.67z"/>
										<path class="st15" d="M290.28,246.39c-1.27,0-2.36,0-3.55,0c0,2.56,0,4.92,0,7.27c1.18,0,2.35,0,3.55,0
											C290.28,251.02,290.28,248.67,290.28,246.39z"/>
										<path class="st15" d="M264.32,257.26c1.27,0,2.36,0,3.46,0c0-1.22,0-2.25,0-3.41c-1.34,0-2.37,0-3.46,0
											C264.32,255.09,264.32,256.18,264.32,257.26z"/>
										<path class="st15" d="M230.37,246.21L230.37,246.21c0-0.02,0-0.05,0-0.07c-0.03,0-0.06,0-0.09,0c0,0.03,0,0.05,0,0.08
											C230.31,246.22,230.34,246.22,230.37,246.21C230.37,246.22,230.37,246.21,230.37,246.21z"/>
										<path class="st15" d="M226.6,249.9c1.12,0,2.25,0,3.68,0c0-1.3,0-2.49,0-3.68c-1.19,0-2.38,0-3.68,0
											C226.6,247.64,226.6,248.77,226.6,249.9z"/>
										<path class="st15" d="M245.47,257.33c1.12,0,2.25,0,3.68,0c0-1.3,0-2.49,0-3.68c0-1.3,0-2.49,0-3.68
											c-1.19,0-2.38,0-3.68,0c0,1.43,0,2.56,0,3.68C245.47,255.07,245.47,256.2,245.47,257.33z"/>
										<path class="st15" d="M249.15,261.01c-1.19,0-2.38,0-3.68,0c0,1.43,0,2.56,0,3.68c1.12,0,2.25,0,3.68,0
											C249.15,263.38,249.15,262.19,249.15,261.01z"/>
										<path class="st15" d="M282.79,227.16c0-3.75,0-7.28,0-10.92c-3.67,0-7.2,0-10.92,0c0,3.81,0,7.4,0,10.92
											C275.65,227.16,279.25,227.16,282.79,227.16z"/>
										<path class="st15" d="M282.75,279.86c0-3.78,0-7.37,0-10.92c-3.78,0-7.37,0-10.94,0c0,3.73,0,7.26,0,10.92
											C275.47,279.86,279,279.86,282.75,279.86z"/>
										<path class="st15" d="M219.24,216.25c0,3.79,0,7.38,0,10.92c3.78,0,7.37,0,10.93,0c0-3.74,0-7.27,0-10.92
											C226.51,216.25,222.98,216.25,219.24,216.25z"/>
										<path class="st15" d="M230.49,246.14h11.16v-7.44h-0.01c0-0.03,0-0.05,0-0.08c-0.03,0-0.05,0-0.08,0c0,0.03,0,0.05,0,0.08
											h-11.07V246.14z"/>
										<rect x="249.21" y="208.71" class="st15" width="3.65" height="7.4"/>
										<rect x="241.74" y="208.71" class="st15" width="3.65" height="7.4"/>
										<path class="st15" d="M256.66,208.75c0,1.3,0,9.98,0,11.09c1.18,0,2.35,0,3.54,0c0-1.39,0-10.04,0-11.09
											C258.93,208.75,257.84,208.75,256.66,208.75z"/>
										<path class="st15" d="M252.86,234.95h3.72v3.67h-11.27v3.6h0.08c1.19,0,2.29,0,3.68,0h7.51v3.68h-3.77v22.83h-0.03v3.65
											h0.03h3.83h3.54v-3.65h-3.54v-14.9h3.6v-26.68h-3.48v-3.53h-3.9v-3.79h-3.65v3.79h-3.82h-0.08h-3.57v7.71h3.57v3.6h3.9
											v-3.6h-3.82v-4.11h3.82h3.65h3.72v4.11h-3.72V234.95z"/>
										<path class="st15" d="M252.78,279.86h7.4v-3.65h-7.26c0-0.01,0-0.01,0-0.02c-0.03,0-0.05,0-0.08,0l0.02,0.02l0,0
											c-0.01-0.01-0.02-0.02-0.02-0.02c0,0.01,0,0.01,0,0.02h-0.06V279.86z"/>
										<path class="st15" d="M260.14,287.2c0-1.27,0-2.36,0-3.54c-1.3,0-9.98,0-11.09,0c0,1.18,0,2.35,0,3.54
											C250.44,287.2,259.09,287.2,260.14,287.2z"/>
										<path class="st15" d="M245.25,283.76v-3.9h3.79v-3.65h-3.79v-3.82v-0.08v-3.57h-7.71v3.57h-3.6v3.9h3.6v-3.82h4.11v3.82
											v3.65v3.72h-4.11v-3.72h-3.6v3.72h-3.76v-3.75h-3.65v3.75h-3.82v-3.75h-3.65v3.75h-3.8c0-2.99,0-6.77,0-7.48
											c-1.18,0-2.35,0-3.54,0c0,1.39,0,10.04,0,11.09c1.2,0,2.24,0,3.34,0v0.04h4h3.65h3.82h3.65h11.56v-3.48H245.25z"/>
										<polygon class="st15" points="233.94,260.99 238.07,260.99 238.07,264.88 241.68,264.88 241.68,260.99 245.47,260.99 
											245.47,257.33 241.68,257.33 241.68,253.43 238.07,253.43 238.07,257.33 233.94,257.33 										"/>
										<path class="st15" d="M222.7,276.1v-3.79h3.82h0.08h0.04c0,1.19,0,2.35,0,3.76c1.17,0,2.35,0,3.53,0c0-1.26,0-2.51,0-3.76
											h0v-7.71h-3.57v-3.6h-3.9v3.6h3.82v4.11h-3.82h-3.65h-3.72v-4.11h3.72v-3.6h-3.72v-3.67h11.27v-3.6h-0.08
											c-1.19,0-2.29,0-3.68,0h-7.51V242.1h-3.65v26.68h3.48v3.53h3.9v3.79H222.7z"/>
									</g>
								</g>
							</g>
							<g>
								<g>
									<polyline class="st16" points="209.41,185.9 188.87,185.9 188.87,206.44 									"/>
									<polyline class="st16" points="292.39,309.95 312.92,309.95 312.92,289.41 									"/>
								</g>
								<g>
									<polyline class="st16" points="312.92,206.44 312.92,185.9 292.39,185.9 									"/>
									<polyline class="st16" points="188.87,289.41 188.87,309.95 209.41,309.95 									"/>
								</g>
							</g>
							<line class="st17" x1="183.15" y1="226.1" x2="316.85" y2="226.1"/>
						</g>
					</g>
				</g>
				<g>
					<path class="st18" d="M285.49,392.02H215.6c-2.64,0-4.77-2.14-4.77-4.77v-26.42c0-2.64,2.14-4.77,4.77-4.77h69.89
						c2.64,0,4.77,2.14,4.77,4.77v26.42C290.26,389.88,288.12,392.02,285.49,392.02z"/>
					<g>
						<g>
							<g>
								<path class="st19" d="M228.06,375.6h-2.86v-1.33h2.86v-3.03h1.4v3.03h2.86v1.33h-2.86v3.04h-1.4V375.6z"/>
								<path class="st19" d="M237.39,369.75h1.91l3.25,5.88l1.08,2.23h0.06c-0.09-1.08-0.24-2.41-0.24-3.57v-4.54h1.77v10.47h-1.91
									l-3.25-5.89l-1.08-2.22h-0.06c0.09,1.11,0.24,2.37,0.24,3.53v4.58h-1.77V369.75z"/>
								<path class="st19" d="M247.34,374.94c0-3.39,1.89-5.38,4.62-5.38s4.62,2.01,4.62,5.38c0,3.39-1.89,5.47-4.62,5.47
									S247.34,378.33,247.34,374.94z M254.66,374.94c0-2.35-1.06-3.77-2.71-3.77s-2.71,1.42-2.71,3.77s1.06,3.85,2.71,3.85
									S254.66,377.29,254.66,374.94z"/>
								<path class="st19" d="M260.79,371.31h-3.02v-1.56h7.9v1.56h-3.02v8.91h-1.86V371.31z"/>
								<path class="st19" d="M267.41,369.75h6.3v1.56h-4.44v2.68h3.76v1.56h-3.76v3.1h4.6v1.56h-6.46V369.75z"/>
							</g>
						</g>
					</g>
				</g>
				<g>
					<text transform="matrix(1 0 0 1 216.0333 152.0468)" class="st7 st20 st21">Scan QR Code</text>
				</g>
			</g>
		</g>
		<g>
			<g>
				<g>
					<path class="st22" d="M382.56,417.53v15.95c7.97,1,9.44,4.83,9.44,4.83h-20.3v-21.04L382.56,417.53z"/>
					<path class="st23" d="M371.95,440.13h19.79c0.53,0,0.96-0.43,0.96-0.96l0,0c0-0.53-0.43-0.96-0.96-0.96h-19.79
						c-0.53,0-0.96,0.43-0.96,0.96l0,0C370.98,439.69,371.42,440.13,371.95,440.13z"/>
				</g>
				<g>
					<path class="st22" d="M363.59,417.53v15.95c7.97,1,9.44,4.83,9.44,4.83h-20.3v-21.04L363.59,417.53z"/>
					<path class="st23" d="M352.98,440.13h19.79c0.53,0,0.96-0.43,0.96-0.96l0,0c0-0.53-0.43-0.96-0.96-0.96h-19.79
						c-0.53,0-0.96,0.43-0.96,0.96l0,0C352.02,439.69,352.45,440.13,352.98,440.13z"/>
				</g>
				<polygon class="st23" points="386.52,302.74 387.59,368.78 384.52,423.5 369.89,423.12 369.63,373.73 365.09,300.44 				"/>
				<polygon class="st24" points="371.81,301 368.33,368.29 365.27,423 350.64,422.63 350.38,373.23 345.84,299.94 				"/>
			</g>
			<g>
				<g>
					<g>
						<path class="st25" d="M378.14,239l19.09,35.15l-6.71,0.04l10.81-16.89c2.98-4.36,9.45-0.23,6.74,4.31
							c0,0-10.81,16.89-10.81,16.89s-3.04,4.74-3.04,4.74s-3.68-4.71-3.68-4.71l-24.62-31.52c-2.49-3.19-1.93-7.8,1.27-10.29
							C370.69,233.93,376.04,235.05,378.14,239L378.14,239z"/>
					</g>
					<path class="st26" d="M373.88,264.78l17.78-10.96l-11.2-15.89c-2.97-4.21-8.81-5.18-12.98-2.15l0,0
						c-3.72,2.7-4.89,7.74-2.73,11.8L373.88,264.78z"/>
				</g>
				<path class="st18" d="M388.25,306.56h-44.44v-62c0-6.01,4.88-10.89,10.89-10.89h11.22c12.33,0,22.33,10,22.33,22.33V306.56z"/>
				<path class="st27" d="M390.66,261.82c-0.96-4.74-0.07-5.63,1.11-6.22c1.19-0.59,4.07-3.52,4.07-3.52s2.19,3.22-0.04,6.48
					C393.59,261.82,390.66,261.82,390.66,261.82z"/>
				<path class="st7" d="M399.41,245.08l9.24,1.97c1.27,0.27,2.02,1.59,1.62,2.82l-5.72,17.25c-0.35,1.07-1.46,1.69-2.55,1.44
					l-8.98-2.04c-1.25-0.28-1.98-1.57-1.6-2.79l5.46-17.19C397.22,245.49,398.31,244.85,399.41,245.08z"/>
				<path class="st27" d="M393.29,265.15c4.59,3.63,10.15-0.81,12.81-3.78c2.67-2.96,1.41-9.63-2.89-9.48
					c-4.3,0.15-10.15,3.78-10.74,5.85C391.88,259.82,393.29,265.15,393.29,265.15z"/>
				<g>
					<g>
						<path class="st27" d="M352.36,241.67l19.09,35.15c0,0-5.53-1.15-5.53-1.15l27.85-18.22c4.49-2.76,8.72,3.66,4.38,6.69
							c-1.59,1.06-30.28,19.8-30.92,20.23c0,0-2.47-3.16-2.47-3.16l-24.62-31.52c-2.49-3.19-1.93-7.8,1.27-10.29
							C344.92,236.59,350.26,237.72,352.36,241.67L352.36,241.67z"/>
					</g>
					<path class="st26" d="M348.11,267.45l17.78-10.96l-11.2-15.89c-2.97-4.21-8.81-5.18-12.98-2.15l0,0
						c-3.72,2.7-4.89,7.74-2.73,11.8L348.11,267.45z"/>
				</g>
			</g>
			<g>
				<g>
					<path class="st27" d="M365.61,217.04L365.61,217.04c-4.95,0-8.97,4.01-8.97,8.97v9.08c0,4.95,4.01,8.97,8.97,8.97l0,0
						c4.95,0,8.97-4.01,8.97-8.97v-9.08C374.58,221.06,370.57,217.04,365.61,217.04z"/>
					<path class="st28" d="M374.16,233.55c0.27-0.86,0.42-1.77,0.42-2.71v-4.82c0-4.95-4.01-8.97-8.97-8.97l0,0
						c-4.95,0-8.97,4.01-8.97,8.97v3.12C362.92,234.1,369.11,234.62,374.16,233.55z"/>
				</g>
				<g>
					<g>
						<path class="st28" d="M384.3,204.86c-2.72,0-4.92,2.2-4.92,4.92c0,2.72,2.2,4.92,4.92,4.92s4.92-2.2,4.92-4.92
							C389.22,207.07,387.02,204.86,384.3,204.86z"/>
					</g>
					<path class="st27" d="M367.21,231.81L367.21,231.81c-10.58,0-19.16-8.58-19.16-19.16v-12.11c0-8.15,6.61-14.76,14.76-14.76
						h6.75c8.15,0,14.76,6.61,14.76,14.76v14.16C384.33,224.15,376.66,231.81,367.21,231.81z"/>
					<g>
						<path class="st28" d="M371.42,202.28l1.85,7.83l-1.05-0.92c0,0,3.56-0.18,3.56-0.18c0,0,1.26-0.06,1.26-0.06
							c-0.04,1.85-0.88,3.63-2.26,4.82c-1,0.88-2.4,1.21-3.66,0.98c1.23-0.16,2.29-0.8,2.84-1.73c0.55-0.86,0.81-2.06,0.75-3.03
							c0,0,1.13,1.22,1.13,1.22c-0.79,0-3.91,0.09-4.64-0.07c0,0,0.02-0.82,0.02-0.82L371.42,202.28L371.42,202.28z"/>
					</g>
					<path class="st28" d="M382.91,194.18c-2.35-4.96-7.38-8.41-13.24-8.41h-6.99c-8.09,0-14.65,6.56-14.65,14.65v10.16l3.27-0.36
						l5.07-5.94C356.38,204.29,358.84,187.81,382.91,194.18z"/>
					<path class="st29" d="M349.37,210.89c8.33-2.56,5.67-15.56,5.67-15.56s15.37-7.56,27.15-1.96c0,0,1.15,1.37,1.81,4.3
						c0,0,3.93-24.44-12.63-24.44v6.33c0,0-1.78-5.11-6-5.22v3.44c0,0-19.22,2-19.22,12.89S349.37,210.89,349.37,210.89z"/>
					<path class="st30" d="M346.34,195.42c0.7,8.72,3.02,15.47,3.02,15.47c8.33-2.56,5.67-15.56,5.67-15.56s15.37-7.56,27.15-1.96
						c0,0,1.15,1.37,1.81,4.3c0,0,0.53-3.3,0.38-7.47C363.93,184.39,351.74,195.23,346.34,195.42z"/>
					<g>
						<path class="st23" d="M363.88,205.53c-1.42,0-2.57,1.15-2.57,2.57c0,1.42,1.15,2.57,2.57,2.57c1.42,0,2.57-1.15,2.57-2.57
							C366.45,206.68,365.3,205.53,363.88,205.53z"/>
						<path class="st23" d="M380.19,205.53c-1.42,0-2.57,1.15-2.57,2.57c0,1.42,1.15,2.57,2.57,2.57c1.42,0,2.57-1.15,2.57-2.57
							C382.76,206.68,381.61,205.53,380.19,205.53z"/>
					</g>
					<path class="st27" d="M348.06,204.86c-2.72,0-4.92,2.2-4.92,4.92c0,2.72,2.2,4.92,4.92,4.92c2.72,0,4.92-2.2,4.92-4.92
						C352.98,207.07,350.77,204.86,348.06,204.86z"/>
					<path class="st28" d="M348.06,207.07c-1.5,0-2.71,1.21-2.71,2.71s1.21,2.71,2.71,2.71c1.5,0,2.71-1.21,2.71-2.71
						S349.56,207.07,348.06,207.07z"/>
					<path class="st31" d="M383.33,183.01c-2.11,1.25-6.66,1.87-16.52-1.56c-3.63-1.26-7.15-1.7-10.44-1.53
						c-4.83,1.76-9.85,4.86-10.2,10.17c5.81-4.53,17.24-8.97,37.96-2.9C383.97,185.8,383.72,184.38,383.33,183.01z"/>
				</g>
				<path class="st5" d="M364.7,216.56l13.19,0.44c0,0-1.11,5.7-7.04,5.26C364.42,221.78,364.7,216.56,364.7,216.56z"/>
				<path class="st30" d="M359.12,203.63c0,0,3.67-2.56,7.72-0.5l-0.54-1.46c-0.43-1.17-1.61-1.9-2.84-1.72
					C361.9,200.18,359.94,201.01,359.12,203.63z"/>
				<path class="st30" d="M384.59,203.63c0,0-3.67-2.56-7.72-0.5l0.54-1.46c0.43-1.17,1.61-1.9,2.84-1.72
					C381.81,200.18,383.78,201.01,384.59,203.63z"/>
			</g>
		</g>
		<g>
			<g>
				<g>
					<path class="st23" d="M143.42,416.57l0,15.95c7.97,1,9.44,4.83,9.44,4.83l-20.3,0l0-21.04L143.42,416.57z"/>
					<path class="st32" d="M132.81,439.16l19.79,0c0.53,0,0.96-0.43,0.96-0.96l0,0c0-0.53-0.43-0.96-0.96-0.96l-19.79,0
						c-0.53,0-0.96,0.43-0.96,0.96l0,0C131.85,438.73,132.28,439.16,132.81,439.16z"/>
				</g>
				<g>
					<path class="st23" d="M124.46,416.56l0,15.95c7.97,1,9.44,4.83,9.44,4.83l-20.3,0l0-21.04L124.46,416.56z"/>
					<path class="st32" d="M113.85,439.16l19.79,0c0.53,0,0.96-0.43,0.96-0.96l0,0c0-0.53-0.43-0.96-0.96-0.96l-19.79,0
						c-0.53,0-0.96,0.43-0.96,0.96l0,0C112.88,438.72,113.32,439.16,113.85,439.16z"/>
				</g>
				<polygon class="st26" points="147.41,301.78 148.46,367.82 145.39,422.54 130.76,422.16 130.51,372.76 125.98,299.47 				"/>
				<polygon class="st33" points="132.7,300.04 129.21,367.32 126.14,422.04 111.5,421.66 111.26,372.26 106.73,298.97 				"/>
			</g>
			<g>
				<g>
					<g>
						<path class="st27" d="M160.15,246.9l18.53,35.76l-6.27-0.64l21.74-22.67c3.73-3.71,9.34,1.63,5.77,5.54
							c-2.07,2.17-23.66,24.66-25,26.06c0,0-3.02-4.04-3.02-4.04l-24.13-32.24c-2.43-3.24-1.77-7.84,1.48-10.26
							C152.81,241.69,158.12,242.91,160.15,246.9L160.15,246.9z"/>
					</g>
				</g>
				<path class="st34" d="M154.04,270.26l17.78-10.96l-11.2-15.89c-2.97-4.21-8.81-5.18-12.98-2.15l0,0
					c-3.72,2.7-4.89,7.74-2.73,11.8L154.04,270.26z"/>
				<path class="st7" d="M192.79,242.61l10.14,2.16c1.39,0.3,2.22,1.74,1.77,3.09l-6.28,18.93c-0.39,1.17-1.6,1.85-2.8,1.58
					l-9.85-2.24c-1.37-0.31-2.18-1.72-1.75-3.06l5.99-18.86C190.38,243.06,191.58,242.36,192.79,242.61z"/>
				<g>
					<path class="st22" d="M150.86,308.16l-46.3-3.38l8.37-56.26c1.12-9.84,10.01-16.91,19.85-15.79l4.15,0.47
						c12.26,1.4,21.06,12.46,19.66,24.72L150.86,308.16z"/>
					<g>
						<path class="st27" d="M114.34,249.5c-1.4-0.71-30.85-15.89-31.32-16.13c0,0-0.33-2.49-0.33-2.49l-5.32-40.17
							c-0.3-2.29,1.31-4.39,3.6-4.7c2.23-0.3,4.28,1.23,4.67,3.42l7,39.91l-2.99-3.86l30.44,10.58c3.82,1.33,5.84,5.5,4.51,9.32
							C123.2,249.57,118.25,251.54,114.34,249.5L114.34,249.5z"/>
					</g>
					<g>
						<path class="st27" d="M87.08,189.52c0,0,7.02-5.59,6.64-6.92c-0.38-1.33-3.25-1.58-5.37,0.01
							C86.23,184.2,87.08,189.52,87.08,189.52z"/>
						<path class="st27" d="M87.59,183.49c0.99-10.39-2.38-15.34-6.44-15.56c-4.06-0.22-9.59,9.26-7.91,15.79
							C74.91,190.25,87.59,183.49,87.59,183.49z"/>
						<path class="st27" d="M72.79,185.86c0.08,4.44,3.72,6.1,8.16,6.02c4.44-0.08,8.01-1.88,7.93-6.32
							c-0.08-4.44-4.01-7.44-8.46-7.35C75.98,178.29,72.7,181.42,72.79,185.86z"/>
					</g>
					<path class="st34" d="M97.08,246.06l7.85-19.35l17.53,8.4c4.65,2.23,6.58,7.83,4.28,12.44h0c-2.05,4.12-6.82,6.11-11.18,4.66
						L97.08,246.06z"/>
				</g>
				<path class="st27" d="M201.59,262.44c0.62-0.78,1.18-3.19,1.49-4.82c0.19-0.98-0.12-1.98-0.83-2.67l0,0l-1.39,3.59
					c0,0-1.22-7.56-5.04-8.86c-3.82-1.3-8.94,3.09-7.64,6.83c1.3,3.74,1.79,12.19,4.96,13.25S200.13,268.21,201.59,262.44z"/>
			</g>
			<g>
				<g>
					<g>
						<path class="st27" d="M142.6,218.19L142.6,218.19c-4.91-0.65-9.42,2.8-10.07,7.71l-1.2,9c-0.65,4.91,2.8,9.42,7.71,10.07l0,0
							c4.91,0.65,9.42-2.8,10.07-7.71l1.2-9C150.96,223.35,147.51,218.84,142.6,218.19z"/>
						<path class="st28" d="M148.89,235.68c0.38-0.81,0.65-1.7,0.77-2.63l0.64-4.78c0.65-4.91-2.8-9.42-7.71-10.07l0,0
							c-4.91-0.65-9.42,2.8-10.07,7.71l-0.41,3.09C137.67,234.74,143.74,236.07,148.89,235.68z"/>
					</g>
					<g>
						<g>
							<path class="st28" d="M162.73,208.58c-2.69-0.36-5.16,1.53-5.52,4.22c-0.36,2.69,1.53,5.16,4.22,5.52
								c2.69,0.36,5.16-1.53,5.52-4.22C167.32,211.41,165.42,208.94,162.73,208.58z"/>
						</g>
						<path class="st27" d="M142.23,233.04L142.23,233.04c-10.49-1.4-17.86-11.03-16.47-21.53l1.6-12.01
							c1.08-8.08,8.5-13.76,16.58-12.69l6.7,0.89c8.08,1.08,13.76,8.5,12.69,16.58l-1.87,14.03
							C160.21,227.7,151.6,234.28,142.23,233.04z"/>
						<path class="st28" d="M137.46,187.42l18.57,5.17c-2.35,22.21-27.23,12.06-27.23,12.06l-1.9-1.61l0.47-3.54
							C128.14,193.68,132.22,189.12,137.46,187.42z"/>
						<path class="st23" d="M156.4,208.44c-1.41-0.19-2.7,0.8-2.89,2.21c-0.19,1.41,0.8,2.7,2.21,2.89c1.41,0.19,2.7-0.8,2.89-2.21
							C158.8,209.93,157.81,208.63,156.4,208.44z"/>
						<g>
							<path class="st28" d="M150.3,204.32l0.8,8.01l-0.92-1.05c0,0,3.55,0.29,3.55,0.29c0,0,1.25,0.1,1.25,0.1
								c-0.29,1.83-1.35,3.49-2.87,4.48c-1.11,0.74-2.54,0.88-3.76,0.49c1.24,0.01,2.37-0.49,3.05-1.33
								c0.66-0.78,1.07-1.94,1.15-2.9c0,0,0.96,1.35,0.96,1.35c-0.79-0.1-3.89-0.43-4.59-0.68c0,0,0.13-0.81,0.13-0.81L150.3,204.32
								L150.3,204.32z"/>
						</g>
						<g>
							<path class="st23" d="M140.89,206.37c-1.41-0.19-2.7,0.8-2.89,2.21c-0.19,1.41,0.8,2.7,2.21,2.89
								c1.41,0.19,2.7-0.8,2.89-2.21C143.29,207.85,142.3,206.56,140.89,206.37z"/>
						</g>
					</g>
					<path class="st5" d="M141.07,218.48l11.42,0.78c0,0-1.13,4.91-6.26,4.35C140.67,222.99,141.07,218.48,141.07,218.48z"/>
				</g>
				<path class="st24" d="M130.42,203.16c20.8,2.97,20.92-8.76,20.92-8.76l8.9,1.03c1.12,0.13,2.05,0.92,2.36,2.01
					c0.46,1.67,1.01,4.15,0.81,5.95c0,0,7.52-7.16,3.08-16.18c-4.44-9.01-14.08-6.89-16.26-2.55l-6.51-0.75
					c-9.2-1.07-17.53,5.53-18.59,14.74l-1.03,8.94l4.75,0.55L130.42,203.16z"/>
				<path class="st27" d="M126.8,203.8c-2.69-0.36-5.16,1.53-5.52,4.22c-0.36,2.69,1.53,5.16,4.22,5.52
					c2.69,0.36,5.16-1.53,5.52-4.22S129.5,204.16,126.8,203.8z"/>
				<path class="st28" d="M126.51,205.99c-1.48-0.2-2.85,0.85-3.04,2.33s0.85,2.85,2.33,3.04c1.48,0.2,2.85-0.85,3.04-2.33
					C129.04,207.55,128,206.18,126.51,205.99z"/>
				<path class="st35" d="M127.73,191.44c2.45,1.78,6.72,4,11.28,2.21c4.4-1.73,4.85-6.46,4.58-9.75c0.04,0,0.09,0,0.13,0.01
					l5.65,0.65c1.46,13.36-14.8,17.79-23.58,11C126.25,194.07,126.91,192.7,127.73,191.44z"/>
				<g>
					<path class="st23" d="M161.03,181.68c2.08,0.89,4.03,2.63,5.46,5.52c4.44,9.01-3.08,16.18-3.08,16.18
						c0.21-1.79-0.34-4.28-0.8-5.95c-0.3-1.09-1.24-1.88-2.36-2.01l-8.9-1.03C151.94,187.34,156.27,182.99,161.03,181.68z"/>
					<path class="st23" d="M151.34,194.4c0,0,0,0.03,0,0.07C151.34,194.44,151.34,194.42,151.34,194.4z"/>
				</g>
				<path class="st23" d="M154.42,203.84l5.89,3.89C160.31,207.73,160.14,201,154.42,203.84z"/>
				<path class="st23" d="M144.71,203.13l-7.04,0.54C137.68,203.68,141.09,197.88,144.71,203.13z"/>
			</g>
		</g>
	</g>
	<g>
		<g>
		</g>
	</g>
</g>
</svg>
